<svg xmlns="http://www.w3.org/2000/svg" viewBox="-3400 -4600 33200 35180" width="100%" role="img" aria-label="方案 A · 容量优先"><rect x="-3400" y="-4600" width="33200" height="35180" fill="#ffffff"/><rect x="-300" y="-350" width="28200" height="21501" fill="none" fill-opacity="1" stroke="#2b3138" stroke-width="70"/><line x1="301" y1="100" x2="4352" y2="100" stroke="#2f7fd4" stroke-width="55" stroke-linecap="butt"/><line x1="301" y1="300" x2="4352" y2="300" stroke="#2f7fd4" stroke-width="55" stroke-linecap="butt"/><line x1="4853" y1="100" x2="8900" y2="100" stroke="#2f7fd4" stroke-width="55" stroke-linecap="butt"/><line x1="4853" y1="300" x2="8900" y2="300" stroke="#2f7fd4" stroke-width="55" stroke-linecap="butt"/><line x1="9499" y1="100" x2="13550" y2="100" stroke="#2f7fd4" stroke-width="55" stroke-linecap="butt"/><line x1="9499" y1="300" x2="13550" y2="300" stroke="#2f7fd4" stroke-width="55" stroke-linecap="butt"/><line x1="14051" y1="100" x2="18098" y2="100" stroke="#2f7fd4" stroke-width="55" stroke-linecap="butt"/><line x1="14051" y1="300" x2="18098" y2="300" stroke="#2f7fd4" stroke-width="55" stroke-linecap="butt"/><line x1="60" y1="3777" x2="60" y2="10049" stroke="#2f7fd4" stroke-width="55" stroke-linecap="butt"/><line x1="260" y1="3777" x2="260" y2="10049" stroke="#2f7fd4" stroke-width="55" stroke-linecap="butt"/><line x1="9499" y1="20899" x2="13550" y2="20899" stroke="#2f7fd4" stroke-width="55" stroke-linecap="butt"/><line x1="9499" y1="21050" x2="13550" y2="21050" stroke="#2f7fd4" stroke-width="55" stroke-linecap="butt"/><line x1="14051" y1="20899" x2="18098" y2="20899" stroke="#2f7fd4" stroke-width="55" stroke-linecap="butt"/><line x1="14051" y1="21050" x2="18098" y2="21050" stroke="#2f7fd4" stroke-width="55" stroke-linecap="butt"/><line x1="18702" y1="20899" x2="22749" y2="20899" stroke="#2f7fd4" stroke-width="55" stroke-linecap="butt"/><line x1="18702" y1="21050" x2="22749" y2="21050" stroke="#2f7fd4" stroke-width="55" stroke-linecap="butt"/><line x1="23249" y1="20899" x2="27301" y2="20899" stroke="#2f7fd4" stroke-width="55" stroke-linecap="butt"/><line x1="23249" y1="21050" x2="27301" y2="21050" stroke="#2f7fd4" stroke-width="55" stroke-linecap="butt"/><rect x="-300" y="-350" width="600" height="700" fill="#4a5560" fill-opacity="1" stroke="#2b3138" stroke-width="25"/><rect x="-300" y="10050" width="600" height="700" fill="#4a5560" fill-opacity="1" stroke="#2b3138" stroke-width="25"/><rect x="-300" y="20450" width="600" height="700" fill="#4a5560" fill-opacity="1" stroke="#2b3138" stroke-width="25"/><rect x="8900" y="-350" width="600" height="700" fill="#4a5560" fill-opacity="1" stroke="#2b3138" stroke-width="25"/><rect x="8900" y="10050" width="600" height="700" fill="#4a5560" fill-opacity="1" stroke="#2b3138" stroke-width="25"/><rect x="8900" y="20450" width="600" height="700" fill="#4a5560" fill-opacity="1" stroke="#2b3138" stroke-width="25"/><rect x="18100" y="-350" width="600" height="700" fill="#4a5560" fill-opacity="1" stroke="#2b3138" stroke-width="25"/><rect x="18100" y="10050" width="600" height="700" fill="#4a5560" fill-opacity="1" stroke="#2b3138" stroke-width="25"/><rect x="18100" y="20450" width="600" height="700" fill="#4a5560" fill-opacity="1" stroke="#2b3138" stroke-width="25"/><rect x="27300" y="-350" width="600" height="700" fill="#4a5560" fill-opacity="1" stroke="#2b3138" stroke-width="25"/><rect x="27300" y="10050" width="600" height="700" fill="#4a5560" fill-opacity="1" stroke="#2b3138" stroke-width="25"/><rect x="27300" y="20450" width="600" height="700" fill="#4a5560" fill-opacity="1" stroke="#2b3138" stroke-width="25"/><rect x="18100" y="5950" width="600" height="700" fill="#4a5560" fill-opacity="1" stroke="#2b3138" stroke-width="25"/><rect x="27300" y="5950" width="600" height="700" fill="#4a5560" fill-opacity="1" stroke="#2b3138" stroke-width="25"/><rect x="4352" y="-150" width="501" height="501" fill="#4a5560" fill-opacity="1" stroke="#2b3138" stroke-width="25"/><rect x="13550" y="-150" width="501" height="501" fill="#4a5560" fill-opacity="1" stroke="#2b3138" stroke-width="25"/><rect x="13550" y="20651" width="501" height="501" fill="#4a5560" fill-opacity="1" stroke="#2b3138" stroke-width="25"/><rect x="22749" y="20651" width="501" height="501" fill="#4a5560" fill-opacity="1" stroke="#2b3138" stroke-width="25"/><line x1="0" y1="-2100" x2="0" y2="21600" stroke="#8a949e" stroke-width="18" stroke-linecap="butt" stroke-dasharray="260,90,40,90"/><circle cx="0" cy="-2450" r="300" fill="#ffffff" stroke="#8a949e" stroke-width="30"/><text x="0" y="-2340" font-family="'Noto Sans SC','Source Han Sans SC','PingFang SC','Microsoft YaHei','Hiragino Sans GB',sans-serif" font-size="330" fill="#8a949e" fill-opacity="1" text-anchor="middle" font-weight="400">①</text><line x1="9200" y1="-2100" x2="9200" y2="21600" stroke="#8a949e" stroke-width="18" stroke-linecap="butt" stroke-dasharray="260,90,40,90"/><circle cx="9200" cy="-2450" r="300" fill="#ffffff" stroke="#8a949e" stroke-width="30"/><text x="9200" y="-2340" font-family="'Noto Sans SC','Source Han Sans SC','PingFang SC','Microsoft YaHei','Hiragino Sans GB',sans-serif" font-size="330" fill="#8a949e" fill-opacity="1" text-anchor="middle" font-weight="400">②</text><line x1="18400" y1="-2100" x2="18400" y2="21600" stroke="#8a949e" stroke-width="18" stroke-linecap="butt" stroke-dasharray="260,90,40,90"/><circle cx="18400" cy="-2450" r="300" fill="#ffffff" stroke="#8a949e" stroke-width="30"/><text x="18400" y="-2340" font-family="'Noto Sans SC','Source Han Sans SC','PingFang SC','Microsoft YaHei','Hiragino Sans GB',sans-serif" font-size="330" fill="#8a949e" fill-opacity="1" text-anchor="middle" font-weight="400">③</text><line x1="27600" y1="-2100" x2="27600" y2="21600" stroke="#8a949e" stroke-width="18" stroke-linecap="butt" stroke-dasharray="260,90,40,90"/><circle cx="27600" cy="-2450" r="300" fill="#ffffff" stroke="#8a949e" stroke-width="30"/><text x="27600" y="-2340" font-family="'Noto Sans SC','Source Han Sans SC','PingFang SC','Microsoft YaHei','Hiragino Sans GB',sans-serif" font-size="330" fill="#8a949e" fill-opacity="1" text-anchor="middle" font-weight="400">④</text><line x1="-2100" y1="0" x2="28400" y2="0" stroke="#8a949e" stroke-width="18" stroke-linecap="butt" stroke-dasharray="260,90,40,90"/><circle cx="-2450" cy="0" r="300" fill="#ffffff" stroke="#8a949e" stroke-width="30"/><text x="-2450" y="110" font-family="'Noto Sans SC','Source Han Sans SC','PingFang SC','Microsoft YaHei','Hiragino Sans GB',sans-serif" font-size="330" fill="#8a949e" fill-opacity="1" text-anchor="middle" font-weight="400">Ⓓ</text><line x1="-2100" y1="6300" x2="28400" y2="6300" stroke="#8a949e" stroke-width="18" stroke-linecap="butt" stroke-dasharray="260,90,40,90"/><circle cx="-2450" cy="6300" r="300" fill="#ffffff" stroke="#8a949e" stroke-width="30"/><text x="-2450" y="6410" font-family="'Noto Sans SC','Source Han Sans SC','PingFang SC','Microsoft YaHei','Hiragino Sans GB',sans-serif" font-size="330" fill="#8a949e" fill-opacity="1" text-anchor="middle" font-weight="400">Ⓒ</text><line x1="-2100" y1="10400" x2="28400" y2="10400" stroke="#8a949e" stroke-width="18" stroke-linecap="butt" stroke-dasharray="260,90,40,90"/><circle cx="-2450" cy="10400" r="300" fill="#ffffff" stroke="#8a949e" stroke-width="30"/><text x="-2450" y="10510" font-family="'Noto Sans SC','Source Han Sans SC','PingFang SC','Microsoft YaHei','Hiragino Sans GB',sans-serif" font-size="330" fill="#8a949e" fill-opacity="1" text-anchor="middle" font-weight="400">Ⓑ</text><line x1="-2100" y1="20800" x2="28400" y2="20800" stroke="#8a949e" stroke-width="18" stroke-linecap="butt" stroke-dasharray="260,90,40,90"/><circle cx="-2450" cy="20800" r="300" fill="#ffffff" stroke="#8a949e" stroke-width="30"/><text x="-2450" y="20910" font-family="'Noto Sans SC','Source Han Sans SC','PingFang SC','Microsoft YaHei','Hiragino Sans GB',sans-serif" font-size="330" fill="#8a949e" fill-opacity="1" text-anchor="middle" font-weight="400">Ⓐ</text><line x1="0" y1="-1500" x2="9200" y2="-1500" stroke="#8a949e" stroke-width="18" stroke-linecap="butt"/><text x="4600" y="-1620" font-family="'Noto Sans SC','Source Han Sans SC','PingFang SC','Microsoft YaHei','Hiragino Sans GB',sans-serif" font-size="300" fill="#8a949e" fill-opacity="1" text-anchor="middle" font-weight="400">9200</text><line x1="9200" y1="-1500" x2="18400" y2="-1500" stroke="#8a949e" stroke-width="18" stroke-linecap="butt"/><text x="13800" y="-1620" font-family="'Noto Sans SC','Source Han Sans SC','PingFang SC','Microsoft YaHei','Hiragino Sans GB',sans-serif" font-size="300" fill="#8a949e" fill-opacity="1" text-anchor="middle" font-weight="400">9200</text><line x1="18400" y1="-1500" x2="27600" y2="-1500" stroke="#8a949e" stroke-width="18" stroke-linecap="butt"/><text x="23000" y="-1620" font-family="'Noto Sans SC','Source Han Sans SC','PingFang SC','Microsoft YaHei','Hiragino Sans GB',sans-serif" font-size="300" fill="#8a949e" fill-opacity="1" text-anchor="middle" font-weight="400">9200</text><line x1="-1500" y1="0" x2="-1500" y2="6300" stroke="#8a949e" stroke-width="18" stroke-linecap="butt"/><text x="-1620" y="3150" font-family="'Noto Sans SC','Source Han Sans SC','PingFang SC','Microsoft YaHei','Hiragino Sans GB',sans-serif" font-size="300" fill="#8a949e" fill-opacity="1" text-anchor="middle" font-weight="400" transform="rotate(-90 -1620 3150)">6300</text><line x1="-1500" y1="6300" x2="-1500" y2="10400" stroke="#8a949e" stroke-width="18" stroke-linecap="butt"/><text x="-1620" y="8350" font-family="'Noto Sans SC','Source Han Sans SC','PingFang SC','Microsoft YaHei','Hiragino Sans GB',sans-serif" font-size="300" fill="#8a949e" fill-opacity="1" text-anchor="middle" font-weight="400" transform="rotate(-90 -1620 8350)">4100</text><line x1="-1500" y1="10400" x2="-1500" y2="20800" stroke="#8a949e" stroke-width="18" stroke-linecap="butt"/><text x="-1620" y="15600" font-family="'Noto Sans SC','Source Han Sans SC','PingFang SC','Microsoft YaHei','Hiragino Sans GB',sans-serif" font-size="300" fill="#8a949e" fill-opacity="1" text-anchor="middle" font-weight="400" transform="rotate(-90 -1620 15600)">10400</text><rect x="12900" y="10800" width="1350" height="2000" fill="#eceff2" fill-opacity="0.55" stroke="#aab4bd" stroke-width="40"/><text x="13575" y="11660" font-family="'Noto Sans SC','Source Han Sans SC','PingFang SC','Microsoft YaHei','Hiragino Sans GB',sans-serif" font-size="290" fill="#6b7680" fill-opacity="1" text-anchor="middle" font-weight="500">IT</text><text x="13575" y="12022" font-family="'Noto Sans SC','Source Han Sans SC','PingFang SC','Microsoft YaHei','Hiragino Sans GB',sans-serif" font-size="290" fill="#6b7680" fill-opacity="1" text-anchor="middle" font-weight="500">3.5㎡</text><rect x="14350" y="10800" width="2050" height="2000" fill="#eceff2" fill-opacity="0.55" stroke="#aab4bd" stroke-width="40"/><text x="15375" y="11660" font-family="'Noto Sans SC','Source Han Sans SC','PingFang SC','Microsoft YaHei','Hiragino Sans GB',sans-serif" font-size="290" fill="#6b7680" fill-opacity="1" text-anchor="middle" font-weight="500">清扫间</text><text x="15375" y="12022" font-family="'Noto Sans SC','Source Han Sans SC','PingFang SC','Microsoft YaHei','Hiragino Sans GB',sans-serif" font-size="290" fill="#6b7680" fill-opacity="1" text-anchor="middle" font-weight="500">2.6㎡</text><rect x="12900" y="12950" width="3500" height="2600" fill="#eceff2" fill-opacity="0.55" stroke="#aab4bd" stroke-width="40"/><text x="14650" y="14110" font-family="'Noto Sans SC','Source Han Sans SC','PingFang SC','Microsoft YaHei','Hiragino Sans GB',sans-serif" font-size="290" fill="#6b7680" fill-opacity="1" text-anchor="middle" font-weight="500">备餐间</text><text x="14650" y="14472" font-family="'Noto Sans SC','Source Han Sans SC','PingFang SC','Microsoft YaHei','Hiragino Sans GB',sans-serif" font-size="290" fill="#6b7680" fill-opacity="1" text-anchor="middle" font-weight="500">7㎡</text><rect x="12900" y="15600" width="4800" height="5299" fill="#eceff2" fill-opacity="0.55" stroke="#aab4bd" stroke-width="40"/><text x="15300" y="18110" font-family="'Noto Sans SC','Source Han Sans SC','PingFang SC','Microsoft YaHei','Hiragino Sans GB',sans-serif" font-size="290" fill="#6b7680" fill-opacity="1" text-anchor="middle" font-weight="500">茶水间</text><text x="15300" y="18472" font-family="'Noto Sans SC','Source Han Sans SC','PingFang SC','Microsoft YaHei','Hiragino Sans GB',sans-serif" font-size="290" fill="#6b7680" fill-opacity="1" text-anchor="middle" font-weight="500">23㎡</text><rect x="17700" y="12950" width="5450" height="7949" fill="#eceff2" fill-opacity="0.55" stroke="#aab4bd" stroke-width="40"/><text x="20425" y="16784" font-family="'Noto Sans SC','Source Han Sans SC','PingFang SC','Microsoft YaHei','Hiragino Sans GB',sans-serif" font-size="290" fill="#6b7680" fill-opacity="1" text-anchor="middle" font-weight="500">客房 01</text><text x="20425" y="17147" font-family="'Noto Sans SC','Source Han Sans SC','PingFang SC','Microsoft YaHei','Hiragino Sans GB',sans-serif" font-size="290" fill="#6b7680" fill-opacity="1" text-anchor="middle" font-weight="500">35㎡</text><rect x="23250" y="12950" width="4400" height="7949" fill="#eceff2" fill-opacity="0.55" stroke="#aab4bd" stroke-width="40"/><text x="25450" y="16784" font-family="'Noto Sans SC','Source Han Sans SC','PingFang SC','Microsoft YaHei','Hiragino Sans GB',sans-serif" font-size="290" fill="#6b7680" fill-opacity="1" text-anchor="middle" font-weight="500">客房 02</text><text x="25450" y="17147" font-family="'Noto Sans SC','Source Han Sans SC','PingFang SC','Microsoft YaHei','Hiragino Sans GB',sans-serif" font-size="290" fill="#6b7680" fill-opacity="1" text-anchor="middle" font-weight="500">35㎡</text><rect x="16500" y="11172" width="11150" height="1778" fill="#eceff2" fill-opacity="0.55" stroke="#aab4bd" stroke-width="40"/><text x="22075" y="12061" font-family="'Noto Sans SC','Source Han Sans SC','PingFang SC','Microsoft YaHei','Hiragino Sans GB',sans-serif" font-size="290" fill="#6b7680" fill-opacity="1" text-anchor="middle" font-weight="500">客房走道 → 消防楼梯（安全出口 2）</text><rect x="18400" y="5100" width="1700" height="3150" fill="#eceff2" fill-opacity="0.55" stroke="#aab4bd" stroke-width="40"/><text x="19250" y="6675" font-family="'Noto Sans SC','Source Han Sans SC','PingFang SC','Microsoft YaHei','Hiragino Sans GB',sans-serif" font-size="290" fill="#6b7680" fill-opacity="1" text-anchor="middle" font-weight="500">强电井</text><rect x="18400" y="8300" width="1700" height="2100" fill="#eceff2" fill-opacity="0.55" stroke="#aab4bd" stroke-width="40"/><text x="19250" y="9350" font-family="'Noto Sans SC','Source Han Sans SC','PingFang SC','Microsoft YaHei','Hiragino Sans GB',sans-serif" font-size="290" fill="#6b7680" fill-opacity="1" text-anchor="middle" font-weight="500">弱电井</text><rect x="20100" y="3900" width="3050" height="4350" fill="#eceff2" fill-opacity="0.55" stroke="#aab4bd" stroke-width="40"/><text x="21625" y="5935" font-family="'Noto Sans SC','Source Han Sans SC','PingFang SC','Microsoft YaHei','Hiragino Sans GB',sans-serif" font-size="290" fill="#6b7680" fill-opacity="1" text-anchor="middle" font-weight="500">男卫生间</text><text x="21625" y="6298" font-family="'Noto Sans SC','Source Han Sans SC','PingFang SC','Microsoft YaHei','Hiragino Sans GB',sans-serif" font-size="290" fill="#6b7680" fill-opacity="1" text-anchor="middle" font-weight="500">13㎡</text><rect x="23200" y="6300" width="4100" height="3700" fill="#eceff2" fill-opacity="0.55" stroke="#aab4bd" stroke-width="40"/><text x="25250" y="8150" font-family="'Noto Sans SC','Source Han Sans SC','PingFang SC','Microsoft YaHei','Hiragino Sans GB',sans-serif" font-size="290" fill="#6b7680" fill-opacity="1" text-anchor="middle" font-weight="500">女卫生间 15㎡</text><rect x="20100" y="8300" width="3050" height="2850" fill="#eceff2" fill-opacity="0.55" stroke="#aab4bd" stroke-width="40"/><text x="21625" y="9725" font-family="'Noto Sans SC','Source Han Sans SC','PingFang SC','Microsoft YaHei','Hiragino Sans GB',sans-serif" font-size="290" fill="#6b7680" fill-opacity="1" text-anchor="middle" font-weight="500">盥洗 / 淋浴间 3㎡</text><rect x="22300" y="1300" width="1700" height="2500" fill="#eceff2" fill-opacity="0.55" stroke="#aab4bd" stroke-width="40"/><text x="23150" y="2550" font-family="'Noto Sans SC','Source Han Sans SC','PingFang SC','Microsoft YaHei','Hiragino Sans GB',sans-serif" font-size="290" fill="#6b7680" fill-opacity="1" text-anchor="middle" font-weight="500">电梯</text><rect x="24000" y="1500" width="3300" height="4800" fill="#eceff2" fill-opacity="0.55" stroke="#aab4bd" stroke-width="40"/><text x="25650" y="3760" font-family="'Noto Sans SC','Source Han Sans SC','PingFang SC','Microsoft YaHei','Hiragino Sans GB',sans-serif" font-size="290" fill="#6b7680" fill-opacity="1" text-anchor="middle" font-weight="500">楼梯</text><text x="25650" y="4122" font-family="'Noto Sans SC','Source Han Sans SC','PingFang SC','Microsoft YaHei','Hiragino Sans GB',sans-serif" font-size="290" fill="#6b7680" fill-opacity="1" text-anchor="middle" font-weight="500">安全出口 1</text><rect x="18400" y="350" width="3500" height="4552" fill="#f4f7fa" fill-opacity="1" stroke="#c3ccd6" stroke-width="40" stroke-dasharray="200,120"/><text x="20150" y="2486" font-family="'Noto Sans SC','Source Han Sans SC','PingFang SC','Microsoft YaHei','Hiragino Sans GB',sans-serif" font-size="300" fill="#6b7680" fill-opacity="1" text-anchor="middle" font-weight="500">入口门厅 / 前台</text><text x="20150" y="2861" font-family="'Noto Sans SC','Source Han Sans SC','PingFang SC','Microsoft YaHei','Hiragino Sans GB',sans-serif" font-size="300" fill="#6b7680" fill-opacity="1" text-anchor="middle" font-weight="500">16 ㎡</text><text x="27500" y="10800" font-family="'Noto Sans SC','Source Han Sans SC','PingFang SC','Microsoft YaHei','Hiragino Sans GB',sans-serif" font-size="300" fill="#1f6feb" fill-opacity="1" text-anchor="end" font-weight="600">▲ 安全出口 2（消防楼梯）</text><rect x="-50" y="350" width="18148" height="1500" fill="#f4f7fa" fill-opacity="1" stroke="#c3ccd6" stroke-width="35" stroke-dasharray="240,140"/><text x="16048" y="1740" font-family="'Noto Sans SC','Source Han Sans SC','PingFang SC','Microsoft YaHei','Hiragino Sans GB',sans-serif" font-size="320" fill="#6b7680" fill-opacity="1" text-anchor="end" font-weight="500">北向采光通廊 1500 —— 主横向通道</text><rect x="16298" y="350" width="1800" height="10302" fill="#f4f7fa" fill-opacity="1" stroke="#c3ccd6" stroke-width="35" stroke-dasharray="240,140"/><text x="17198" y="6800" font-family="'Noto Sans SC','Source Han Sans SC','PingFang SC','Microsoft YaHei','Hiragino Sans GB',sans-serif" font-size="300" fill="#6b7680" fill-opacity="1" text-anchor="middle" font-weight="500" transform="rotate(-90 17198 6800)">入口纵向通道 1800</text><rect x="-50" y="10049" width="12801" height="1800" fill="#f4f7fa" fill-opacity="1" stroke="#c3ccd6" stroke-width="35" stroke-dasharray="240,140"/><text x="6350" y="11049" font-family="'Noto Sans SC','Source Han Sans SC','PingFang SC','Microsoft YaHei','Hiragino Sans GB',sans-serif" font-size="300" fill="#6b7680" fill-opacity="1" text-anchor="middle" font-weight="500">南区主通道 1800</text><rect x="9350" y="1850" width="1200" height="9999" fill="#f4f7fa" fill-opacity="1" stroke="#c3ccd6" stroke-width="35" stroke-dasharray="240,140"/><text x="9950" y="6800" font-family="'Noto Sans SC','Source Han Sans SC','PingFang SC','Microsoft YaHei','Hiragino Sans GB',sans-serif" font-size="280" fill="#6b7680" fill-opacity="1" text-anchor="middle" font-weight="500" transform="rotate(-90 9950 6800)">纵向次通道 1200</text><rect x="8830" y="9979" width="740" height="840" fill="none" fill-opacity="1" stroke="#1f6feb" stroke-width="45" stroke-dasharray="180,120"/><rect x="990" y="1890" width="1320" height="620" fill="#ffffff" fill-opacity="1" stroke="#3d4650" stroke-width="35" rx="60"/><circle cx="1650" cy="1550" r="230" fill="#8d99a6" stroke="#3d4650" stroke-width="25"/><rect x="990" y="2590" width="1320" height="620" fill="#ffffff" fill-opacity="1" stroke="#3d4650" stroke-width="35" rx="60"/><circle cx="1650" cy="3550" r="230" fill="#8d99a6" stroke="#3d4650" stroke-width="25"/><rect x="2390" y="1890" width="1320" height="620" fill="#ffffff" fill-opacity="1" stroke="#3d4650" stroke-width="35" rx="60"/><circle cx="3050" cy="1550" r="230" fill="#8d99a6" stroke="#3d4650" stroke-width="25"/><rect x="2390" y="2590" width="1320" height="620" fill="#ffffff" fill-opacity="1" stroke="#3d4650" stroke-width="35" rx="60"/><circle cx="3050" cy="3550" r="230" fill="#8d99a6" stroke="#3d4650" stroke-width="25"/><rect x="3790" y="1890" width="1320" height="620" fill="#ffffff" fill-opacity="1" stroke="#3d4650" stroke-width="35" rx="60"/><circle cx="4450" cy="1550" r="230" fill="#8d99a6" stroke="#3d4650" stroke-width="25"/><rect x="3790" y="2590" width="1320" height="620" fill="#ffffff" fill-opacity="1" stroke="#3d4650" stroke-width="35" rx="60"/><circle cx="4450" cy="3550" r="230" fill="#8d99a6" stroke="#3d4650" stroke-width="25"/><rect x="5190" y="1890" width="1320" height="620" fill="#ffffff" fill-opacity="1" stroke="#3d4650" stroke-width="35" rx="60"/><circle cx="5850" cy="1550" r="230" fill="#8d99a6" stroke="#3d4650" stroke-width="25"/><rect x="5190" y="2590" width="1320" height="620" fill="#ffffff" fill-opacity="1" stroke="#3d4650" stroke-width="35" rx="60"/><circle cx="5850" cy="3550" r="230" fill="#8d99a6" stroke="#3d4650" stroke-width="25"/><rect x="6590" y="1890" width="1320" height="620" fill="#ffffff" fill-opacity="1" stroke="#3d4650" stroke-width="35" rx="60"/><circle cx="7250" cy="1550" r="230" fill="#8d99a6" stroke="#3d4650" stroke-width="25"/><rect x="6590" y="2590" width="1320" height="620" fill="#ffffff" fill-opacity="1" stroke="#3d4650" stroke-width="35" rx="60"/><circle cx="7250" cy="3550" r="230" fill="#8d99a6" stroke="#3d4650" stroke-width="25"/><rect x="7990" y="1890" width="1320" height="620" fill="#ffffff" fill-opacity="1" stroke="#3d4650" stroke-width="35" rx="60"/><circle cx="8650" cy="1550" r="230" fill="#8d99a6" stroke="#3d4650" stroke-width="25"/><rect x="7990" y="2590" width="1320" height="620" fill="#ffffff" fill-opacity="1" stroke="#3d4650" stroke-width="35" rx="60"/><circle cx="8650" cy="3550" r="230" fill="#8d99a6" stroke="#3d4650" stroke-width="25"/><rect x="10590" y="1890" width="1320" height="620" fill="#ffffff" fill-opacity="1" stroke="#3d4650" stroke-width="35" rx="60"/><circle cx="11250" cy="1550" r="230" fill="#8d99a6" stroke="#3d4650" stroke-width="25"/><rect x="10590" y="2590" width="1320" height="620" fill="#ffffff" fill-opacity="1" stroke="#3d4650" stroke-width="35" rx="60"/><circle cx="11250" cy="3550" r="230" fill="#8d99a6" stroke="#3d4650" stroke-width="25"/><rect x="11990" y="1890" width="1320" height="620" fill="#ffffff" fill-opacity="1" stroke="#3d4650" stroke-width="35" rx="60"/><circle cx="12650" cy="1550" r="230" fill="#8d99a6" stroke="#3d4650" stroke-width="25"/><rect x="11990" y="2590" width="1320" height="620" fill="#ffffff" fill-opacity="1" stroke="#3d4650" stroke-width="35" rx="60"/><circle cx="12650" cy="3550" r="230" fill="#8d99a6" stroke="#3d4650" stroke-width="25"/><rect x="13390" y="1890" width="1320" height="620" fill="#ffffff" fill-opacity="1" stroke="#3d4650" stroke-width="35" rx="60"/><circle cx="14050" cy="1550" r="230" fill="#8d99a6" stroke="#3d4650" stroke-width="25"/><rect x="13390" y="2590" width="1320" height="620" fill="#ffffff" fill-opacity="1" stroke="#3d4650" stroke-width="35" rx="60"/><circle cx="14050" cy="3550" r="230" fill="#8d99a6" stroke="#3d4650" stroke-width="25"/><rect x="14790" y="1890" width="1320" height="620" fill="#ffffff" fill-opacity="1" stroke="#3d4650" stroke-width="35" rx="60"/><circle cx="15450" cy="1550" r="230" fill="#8d99a6" stroke="#3d4650" stroke-width="25"/><rect x="14790" y="2590" width="1320" height="620" fill="#ffffff" fill-opacity="1" stroke="#3d4650" stroke-width="35" rx="60"/><circle cx="15450" cy="3550" r="230" fill="#8d99a6" stroke="#3d4650" stroke-width="25"/><rect x="990" y="5090" width="1320" height="620" fill="#ffffff" fill-opacity="1" stroke="#3d4650" stroke-width="35" rx="60"/><circle cx="1650" cy="4750" r="230" fill="#8d99a6" stroke="#3d4650" stroke-width="25"/><rect x="990" y="5790" width="1320" height="620" fill="#ffffff" fill-opacity="1" stroke="#3d4650" stroke-width="35" rx="60"/><circle cx="1650" cy="6750" r="230" fill="#8d99a6" stroke="#3d4650" stroke-width="25"/><rect x="2390" y="5090" width="1320" height="620" fill="#ffffff" fill-opacity="1" stroke="#3d4650" stroke-width="35" rx="60"/><circle cx="3050" cy="4750" r="230" fill="#8d99a6" stroke="#3d4650" stroke-width="25"/><rect x="2390" y="5790" width="1320" height="620" fill="#ffffff" fill-opacity="1" stroke="#3d4650" stroke-width="35" rx="60"/><circle cx="3050" cy="6750" r="230" fill="#8d99a6" stroke="#3d4650" stroke-width="25"/><rect x="3790" y="5090" width="1320" height="620" fill="#ffffff" fill-opacity="1" stroke="#3d4650" stroke-width="35" rx="60"/><circle cx="4450" cy="4750" r="230" fill="#8d99a6" stroke="#3d4650" stroke-width="25"/><rect x="3790" y="5790" width="1320" height="620" fill="#ffffff" fill-opacity="1" stroke="#3d4650" stroke-width="35" rx="60"/><circle cx="4450" cy="6750" r="230" fill="#8d99a6" stroke="#3d4650" stroke-width="25"/><rect x="5190" y="5090" width="1320" height="620" fill="#ffffff" fill-opacity="1" stroke="#3d4650" stroke-width="35" rx="60"/><circle cx="5850" cy="4750" r="230" fill="#8d99a6" stroke="#3d4650" stroke-width="25"/><rect x="5190" y="5790" width="1320" height="620" fill="#ffffff" fill-opacity="1" stroke="#3d4650" stroke-width="35" rx="60"/><circle cx="5850" cy="6750" r="230" fill="#8d99a6" stroke="#3d4650" stroke-width="25"/><rect x="6590" y="5090" width="1320" height="620" fill="#ffffff" fill-opacity="1" stroke="#3d4650" stroke-width="35" rx="60"/><circle cx="7250" cy="4750" r="230" fill="#8d99a6" stroke="#3d4650" stroke-width="25"/><rect x="6590" y="5790" width="1320" height="620" fill="#ffffff" fill-opacity="1" stroke="#3d4650" stroke-width="35" rx="60"/><circle cx="7250" cy="6750" r="230" fill="#8d99a6" stroke="#3d4650" stroke-width="25"/><rect x="7990" y="5090" width="1320" height="620" fill="#ffffff" fill-opacity="1" stroke="#3d4650" stroke-width="35" rx="60"/><circle cx="8650" cy="4750" r="230" fill="#8d99a6" stroke="#3d4650" stroke-width="25"/><rect x="7990" y="5790" width="1320" height="620" fill="#ffffff" fill-opacity="1" stroke="#3d4650" stroke-width="35" rx="60"/><circle cx="8650" cy="6750" r="230" fill="#8d99a6" stroke="#3d4650" stroke-width="25"/><rect x="10590" y="5090" width="1320" height="620" fill="#ffffff" fill-opacity="1" stroke="#3d4650" stroke-width="35" rx="60"/><circle cx="11250" cy="4750" r="230" fill="#8d99a6" stroke="#3d4650" stroke-width="25"/><rect x="10590" y="5790" width="1320" height="620" fill="#ffffff" fill-opacity="1" stroke="#3d4650" stroke-width="35" rx="60"/><circle cx="11250" cy="6750" r="230" fill="#8d99a6" stroke="#3d4650" stroke-width="25"/><rect x="11990" y="5090" width="1320" height="620" fill="#ffffff" fill-opacity="1" stroke="#3d4650" stroke-width="35" rx="60"/><circle cx="12650" cy="4750" r="230" fill="#8d99a6" stroke="#3d4650" stroke-width="25"/><rect x="11990" y="5790" width="1320" height="620" fill="#ffffff" fill-opacity="1" stroke="#3d4650" stroke-width="35" rx="60"/><circle cx="12650" cy="6750" r="230" fill="#8d99a6" stroke="#3d4650" stroke-width="25"/><rect x="13390" y="5090" width="1320" height="620" fill="#ffffff" fill-opacity="1" stroke="#3d4650" stroke-width="35" rx="60"/><circle cx="14050" cy="4750" r="230" fill="#8d99a6" stroke="#3d4650" stroke-width="25"/><rect x="13390" y="5790" width="1320" height="620" fill="#ffffff" fill-opacity="1" stroke="#3d4650" stroke-width="35" rx="60"/><circle cx="14050" cy="6750" r="230" fill="#8d99a6" stroke="#3d4650" stroke-width="25"/><rect x="14790" y="5090" width="1320" height="620" fill="#ffffff" fill-opacity="1" stroke="#3d4650" stroke-width="35" rx="60"/><circle cx="15450" cy="4750" r="230" fill="#8d99a6" stroke="#3d4650" stroke-width="25"/><rect x="14790" y="5790" width="1320" height="620" fill="#ffffff" fill-opacity="1" stroke="#3d4650" stroke-width="35" rx="60"/><circle cx="15450" cy="6750" r="230" fill="#8d99a6" stroke="#3d4650" stroke-width="25"/><rect x="990" y="8290" width="1320" height="620" fill="#ffffff" fill-opacity="1" stroke="#3d4650" stroke-width="35" rx="60"/><circle cx="1650" cy="7950" r="230" fill="#8d99a6" stroke="#3d4650" stroke-width="25"/><rect x="990" y="8990" width="1320" height="620" fill="#ffffff" fill-opacity="1" stroke="#3d4650" stroke-width="35" rx="60"/><circle cx="1650" cy="9950" r="230" fill="#8d99a6" stroke="#3d4650" stroke-width="25"/><rect x="2390" y="8290" width="1320" height="620" fill="#ffffff" fill-opacity="1" stroke="#3d4650" stroke-width="35" rx="60"/><circle cx="3050" cy="7950" r="230" fill="#8d99a6" stroke="#3d4650" stroke-width="25"/><rect x="2390" y="8990" width="1320" height="620" fill="#ffffff" fill-opacity="1" stroke="#3d4650" stroke-width="35" rx="60"/><circle cx="3050" cy="9950" r="230" fill="#8d99a6" stroke="#3d4650" stroke-width="25"/><rect x="3790" y="8290" width="1320" height="620" fill="#ffffff" fill-opacity="1" stroke="#3d4650" stroke-width="35" rx="60"/><circle cx="4450" cy="7950" r="230" fill="#8d99a6" stroke="#3d4650" stroke-width="25"/><rect x="3790" y="8990" width="1320" height="620" fill="#ffffff" fill-opacity="1" stroke="#3d4650" stroke-width="35" rx="60"/><circle cx="4450" cy="9950" r="230" fill="#8d99a6" stroke="#3d4650" stroke-width="25"/><rect x="5190" y="8290" width="1320" height="620" fill="#ffffff" fill-opacity="1" stroke="#3d4650" stroke-width="35" rx="60"/><circle cx="5850" cy="7950" r="230" fill="#8d99a6" stroke="#3d4650" stroke-width="25"/><rect x="5190" y="8990" width="1320" height="620" fill="#ffffff" fill-opacity="1" stroke="#3d4650" stroke-width="35" rx="60"/><circle cx="5850" cy="9950" r="230" fill="#8d99a6" stroke="#3d4650" stroke-width="25"/><rect x="6590" y="8290" width="1320" height="620" fill="#ffffff" fill-opacity="1" stroke="#3d4650" stroke-width="35" rx="60"/><circle cx="7250" cy="7950" r="230" fill="#8d99a6" stroke="#3d4650" stroke-width="25"/><rect x="6590" y="8990" width="1320" height="620" fill="#ffffff" fill-opacity="1" stroke="#3d4650" stroke-width="35" rx="60"/><circle cx="7250" cy="9950" r="230" fill="#8d99a6" stroke="#3d4650" stroke-width="25"/><rect x="7990" y="8290" width="1320" height="620" fill="#ffffff" fill-opacity="1" stroke="#3d4650" stroke-width="35" rx="60"/><circle cx="8650" cy="7950" r="230" fill="#8d99a6" stroke="#3d4650" stroke-width="25"/><rect x="7990" y="8990" width="1320" height="620" fill="#ffffff" fill-opacity="1" stroke="#3d4650" stroke-width="35" rx="60"/><circle cx="8650" cy="9950" r="230" fill="#8d99a6" stroke="#3d4650" stroke-width="25"/><rect x="10590" y="8290" width="1320" height="620" fill="#ffffff" fill-opacity="1" stroke="#3d4650" stroke-width="35" rx="60"/><circle cx="11250" cy="7950" r="230" fill="#8d99a6" stroke="#3d4650" stroke-width="25"/><rect x="10590" y="8990" width="1320" height="620" fill="#ffffff" fill-opacity="1" stroke="#3d4650" stroke-width="35" rx="60"/><circle cx="11250" cy="9950" r="230" fill="#8d99a6" stroke="#3d4650" stroke-width="25"/><rect x="11990" y="8290" width="1320" height="620" fill="#ffffff" fill-opacity="1" stroke="#3d4650" stroke-width="35" rx="60"/><circle cx="12650" cy="7950" r="230" fill="#8d99a6" stroke="#3d4650" stroke-width="25"/><rect x="11990" y="8990" width="1320" height="620" fill="#ffffff" fill-opacity="1" stroke="#3d4650" stroke-width="35" rx="60"/><circle cx="12650" cy="9950" r="230" fill="#8d99a6" stroke="#3d4650" stroke-width="25"/><rect x="13390" y="8290" width="1320" height="620" fill="#ffffff" fill-opacity="1" stroke="#3d4650" stroke-width="35" rx="60"/><circle cx="14050" cy="7950" r="230" fill="#8d99a6" stroke="#3d4650" stroke-width="25"/><rect x="13390" y="8990" width="1320" height="620" fill="#ffffff" fill-opacity="1" stroke="#3d4650" stroke-width="35" rx="60"/><circle cx="14050" cy="9950" r="230" fill="#8d99a6" stroke="#3d4650" stroke-width="25"/><rect x="14790" y="8290" width="1320" height="620" fill="#ffffff" fill-opacity="1" stroke="#3d4650" stroke-width="35" rx="60"/><circle cx="15450" cy="7950" r="230" fill="#8d99a6" stroke="#3d4650" stroke-width="25"/><rect x="14790" y="8990" width="1320" height="620" fill="#ffffff" fill-opacity="1" stroke="#3d4650" stroke-width="35" rx="60"/><circle cx="15450" cy="9950" r="230" fill="#8d99a6" stroke="#3d4650" stroke-width="25"/><rect x="990" y="11889" width="1320" height="620" fill="#ffffff" fill-opacity="1" stroke="#3d4650" stroke-width="35" rx="60"/><circle cx="1650" cy="11549" r="230" fill="#8d99a6" stroke="#3d4650" stroke-width="25"/><rect x="990" y="12589" width="1320" height="620" fill="#ffffff" fill-opacity="1" stroke="#3d4650" stroke-width="35" rx="60"/><circle cx="1650" cy="13549" r="230" fill="#8d99a6" stroke="#3d4650" stroke-width="25"/><rect x="2390" y="11889" width="1320" height="620" fill="#ffffff" fill-opacity="1" stroke="#3d4650" stroke-width="35" rx="60"/><circle cx="3050" cy="11549" r="230" fill="#8d99a6" stroke="#3d4650" stroke-width="25"/><rect x="2390" y="12589" width="1320" height="620" fill="#ffffff" fill-opacity="1" stroke="#3d4650" stroke-width="35" rx="60"/><circle cx="3050" cy="13549" r="230" fill="#8d99a6" stroke="#3d4650" stroke-width="25"/><rect x="3790" y="11889" width="1320" height="620" fill="#ffffff" fill-opacity="1" stroke="#3d4650" stroke-width="35" rx="60"/><circle cx="4450" cy="11549" r="230" fill="#8d99a6" stroke="#3d4650" stroke-width="25"/><rect x="3790" y="12589" width="1320" height="620" fill="#ffffff" fill-opacity="1" stroke="#3d4650" stroke-width="35" rx="60"/><circle cx="4450" cy="13549" r="230" fill="#8d99a6" stroke="#3d4650" stroke-width="25"/><rect x="5190" y="11889" width="1320" height="620" fill="#ffffff" fill-opacity="1" stroke="#3d4650" stroke-width="35" rx="60"/><circle cx="5850" cy="11549" r="230" fill="#8d99a6" stroke="#3d4650" stroke-width="25"/><rect x="5190" y="12589" width="1320" height="620" fill="#ffffff" fill-opacity="1" stroke="#3d4650" stroke-width="35" rx="60"/><circle cx="5850" cy="13549" r="230" fill="#8d99a6" stroke="#3d4650" stroke-width="25"/><rect x="7790" y="11889" width="1320" height="620" fill="#ffffff" fill-opacity="1" stroke="#3d4650" stroke-width="35" rx="60"/><circle cx="8450" cy="11549" r="230" fill="#8d99a6" stroke="#3d4650" stroke-width="25"/><rect x="7790" y="12589" width="1320" height="620" fill="#ffffff" fill-opacity="1" stroke="#3d4650" stroke-width="35" rx="60"/><circle cx="8450" cy="13549" r="230" fill="#8d99a6" stroke="#3d4650" stroke-width="25"/><rect x="9190" y="11889" width="1320" height="620" fill="#ffffff" fill-opacity="1" stroke="#3d4650" stroke-width="35" rx="60"/><circle cx="9850" cy="11549" r="230" fill="#8d99a6" stroke="#3d4650" stroke-width="25"/><rect x="9190" y="12589" width="1320" height="620" fill="#ffffff" fill-opacity="1" stroke="#3d4650" stroke-width="35" rx="60"/><circle cx="9850" cy="13549" r="230" fill="#8d99a6" stroke="#3d4650" stroke-width="25"/><rect x="10590" y="11889" width="1320" height="620" fill="#ffffff" fill-opacity="1" stroke="#3d4650" stroke-width="35" rx="60"/><circle cx="11250" cy="11549" r="230" fill="#8d99a6" stroke="#3d4650" stroke-width="25"/><rect x="10590" y="12589" width="1320" height="620" fill="#ffffff" fill-opacity="1" stroke="#3d4650" stroke-width="35" rx="60"/><circle cx="11250" cy="13549" r="230" fill="#8d99a6" stroke="#3d4650" stroke-width="25"/><rect x="990" y="15089" width="1320" height="620" fill="#ffffff" fill-opacity="1" stroke="#3d4650" stroke-width="35" rx="60"/><circle cx="1650" cy="14749" r="230" fill="#8d99a6" stroke="#3d4650" stroke-width="25"/><rect x="990" y="15789" width="1320" height="620" fill="#ffffff" fill-opacity="1" stroke="#3d4650" stroke-width="35" rx="60"/><circle cx="1650" cy="16749" r="230" fill="#8d99a6" stroke="#3d4650" stroke-width="25"/><rect x="2390" y="15089" width="1320" height="620" fill="#ffffff" fill-opacity="1" stroke="#3d4650" stroke-width="35" rx="60"/><circle cx="3050" cy="14749" r="230" fill="#8d99a6" stroke="#3d4650" stroke-width="25"/><rect x="2390" y="15789" width="1320" height="620" fill="#ffffff" fill-opacity="1" stroke="#3d4650" stroke-width="35" rx="60"/><circle cx="3050" cy="16749" r="230" fill="#8d99a6" stroke="#3d4650" stroke-width="25"/><rect x="3790" y="15089" width="1320" height="620" fill="#ffffff" fill-opacity="1" stroke="#3d4650" stroke-width="35" rx="60"/><circle cx="4450" cy="14749" r="230" fill="#8d99a6" stroke="#3d4650" stroke-width="25"/><rect x="3790" y="15789" width="1320" height="620" fill="#ffffff" fill-opacity="1" stroke="#3d4650" stroke-width="35" rx="60"/><circle cx="4450" cy="16749" r="230" fill="#8d99a6" stroke="#3d4650" stroke-width="25"/><rect x="5190" y="15089" width="1320" height="620" fill="#ffffff" fill-opacity="1" stroke="#3d4650" stroke-width="35" rx="60"/><circle cx="5850" cy="14749" r="230" fill="#8d99a6" stroke="#3d4650" stroke-width="25"/><rect x="5190" y="15789" width="1320" height="620" fill="#ffffff" fill-opacity="1" stroke="#3d4650" stroke-width="35" rx="60"/><circle cx="5850" cy="16749" r="230" fill="#8d99a6" stroke="#3d4650" stroke-width="25"/><rect x="7790" y="15089" width="1320" height="620" fill="#ffffff" fill-opacity="1" stroke="#3d4650" stroke-width="35" rx="60"/><circle cx="8450" cy="14749" r="230" fill="#8d99a6" stroke="#3d4650" stroke-width="25"/><rect x="7790" y="15789" width="1320" height="620" fill="#ffffff" fill-opacity="1" stroke="#3d4650" stroke-width="35" rx="60"/><circle cx="8450" cy="16749" r="230" fill="#8d99a6" stroke="#3d4650" stroke-width="25"/><rect x="9190" y="15089" width="1320" height="620" fill="#ffffff" fill-opacity="1" stroke="#3d4650" stroke-width="35" rx="60"/><circle cx="9850" cy="14749" r="230" fill="#8d99a6" stroke="#3d4650" stroke-width="25"/><rect x="9190" y="15789" width="1320" height="620" fill="#ffffff" fill-opacity="1" stroke="#3d4650" stroke-width="35" rx="60"/><circle cx="9850" cy="16749" r="230" fill="#8d99a6" stroke="#3d4650" stroke-width="25"/><rect x="10590" y="15089" width="1320" height="620" fill="#ffffff" fill-opacity="1" stroke="#3d4650" stroke-width="35" rx="60"/><circle cx="11250" cy="14749" r="230" fill="#8d99a6" stroke="#3d4650" stroke-width="25"/><rect x="10590" y="15789" width="1320" height="620" fill="#ffffff" fill-opacity="1" stroke="#3d4650" stroke-width="35" rx="60"/><circle cx="11250" cy="16749" r="230" fill="#8d99a6" stroke="#3d4650" stroke-width="25"/><rect x="990" y="18289" width="1320" height="620" fill="#ffffff" fill-opacity="1" stroke="#3d4650" stroke-width="35" rx="60"/><circle cx="1650" cy="17949" r="230" fill="#8d99a6" stroke="#3d4650" stroke-width="25"/><rect x="990" y="18989" width="1320" height="620" fill="#ffffff" fill-opacity="1" stroke="#3d4650" stroke-width="35" rx="60"/><circle cx="1650" cy="19949" r="230" fill="#8d99a6" stroke="#3d4650" stroke-width="25"/><rect x="2390" y="18289" width="1320" height="620" fill="#ffffff" fill-opacity="1" stroke="#3d4650" stroke-width="35" rx="60"/><circle cx="3050" cy="17949" r="230" fill="#8d99a6" stroke="#3d4650" stroke-width="25"/><rect x="2390" y="18989" width="1320" height="620" fill="#ffffff" fill-opacity="1" stroke="#3d4650" stroke-width="35" rx="60"/><circle cx="3050" cy="19949" r="230" fill="#8d99a6" stroke="#3d4650" stroke-width="25"/><rect x="3790" y="18289" width="1320" height="620" fill="#ffffff" fill-opacity="1" stroke="#3d4650" stroke-width="35" rx="60"/><circle cx="4450" cy="17949" r="230" fill="#8d99a6" stroke="#3d4650" stroke-width="25"/><rect x="3790" y="18989" width="1320" height="620" fill="#ffffff" fill-opacity="1" stroke="#3d4650" stroke-width="35" rx="60"/><circle cx="4450" cy="19949" r="230" fill="#8d99a6" stroke="#3d4650" stroke-width="25"/><rect x="5190" y="18289" width="1320" height="620" fill="#ffffff" fill-opacity="1" stroke="#3d4650" stroke-width="35" rx="60"/><circle cx="5850" cy="17949" r="230" fill="#8d99a6" stroke="#3d4650" stroke-width="25"/><rect x="5190" y="18989" width="1320" height="620" fill="#ffffff" fill-opacity="1" stroke="#3d4650" stroke-width="35" rx="60"/><circle cx="5850" cy="19949" r="230" fill="#8d99a6" stroke="#3d4650" stroke-width="25"/><rect x="7790" y="18289" width="1320" height="620" fill="#ffffff" fill-opacity="1" stroke="#3d4650" stroke-width="35" rx="60"/><circle cx="8450" cy="17949" r="230" fill="#8d99a6" stroke="#3d4650" stroke-width="25"/><rect x="7790" y="18989" width="1320" height="620" fill="#ffffff" fill-opacity="1" stroke="#3d4650" stroke-width="35" rx="60"/><circle cx="8450" cy="19949" r="230" fill="#8d99a6" stroke="#3d4650" stroke-width="25"/><rect x="9190" y="18289" width="1320" height="620" fill="#ffffff" fill-opacity="1" stroke="#3d4650" stroke-width="35" rx="60"/><circle cx="9850" cy="17949" r="230" fill="#8d99a6" stroke="#3d4650" stroke-width="25"/><rect x="9190" y="18989" width="1320" height="620" fill="#ffffff" fill-opacity="1" stroke="#3d4650" stroke-width="35" rx="60"/><circle cx="9850" cy="19949" r="230" fill="#8d99a6" stroke="#3d4650" stroke-width="25"/><rect x="10590" y="18289" width="1320" height="620" fill="#ffffff" fill-opacity="1" stroke="#3d4650" stroke-width="35" rx="60"/><circle cx="11250" cy="17949" r="230" fill="#8d99a6" stroke="#3d4650" stroke-width="25"/><rect x="10590" y="18989" width="1320" height="620" fill="#ffffff" fill-opacity="1" stroke="#3d4650" stroke-width="35" rx="60"/><circle cx="11250" cy="19949" r="230" fill="#8d99a6" stroke="#3d4650" stroke-width="25"/><text x="8124" y="-780" font-family="'Noto Sans SC','Source Han Sans SC','PingFang SC','Microsoft YaHei','Hiragino Sans GB',sans-serif" font-size="430" fill="#1c2024" fill-opacity="1" text-anchor="middle" font-weight="700">北区 · 主工位区（北向 + 西向采光）   6 排 × 10 列 = 60 工位</text><text x="6350" y="22400" font-family="'Noto Sans SC','Source Han Sans SC','PingFang SC','Microsoft YaHei','Hiragino Sans GB',sans-serif" font-size="430" fill="#1c2024" fill-opacity="1" text-anchor="middle" font-weight="700">南区 · 次工位区（内区，仅东南角采光）   6 排 × 7 列 = 42 工位</text><line x1="950" y1="1430" x2="2350" y2="1430" stroke="#1f6feb" stroke-width="35" stroke-linecap="butt"/><line x1="950" y1="1330" x2="950" y2="1530" stroke="#1f6feb" stroke-width="35" stroke-linecap="butt"/><line x1="2350" y1="1330" x2="2350" y2="1530" stroke="#1f6feb" stroke-width="35" stroke-linecap="butt"/><text x="1650" y="1290" font-family="'Noto Sans SC','Source Han Sans SC','PingFang SC','Microsoft YaHei','Hiragino Sans GB',sans-serif" font-size="290" fill="#1f6feb" fill-opacity="1" text-anchor="middle" font-weight="600">1400</text><line x1="9710" y1="1850" x2="9710" y2="3250" stroke="#1f6feb" stroke-width="45" stroke-linecap="butt"/><text x="9920" y="2550" font-family="'Noto Sans SC','Source Han Sans SC','PingFang SC','Microsoft YaHei','Hiragino Sans GB',sans-serif" font-size="290" fill="#1f6feb" fill-opacity="1" text-anchor="middle" font-weight="600" transform="rotate(-90 9920 2550)">背靠背 1400</text><line x1="9710" y1="3250" x2="9710" y2="5050" stroke="#8a949e" stroke-width="45" stroke-linecap="butt"/><text x="9920" y="4150" font-family="'Noto Sans SC','Source Han Sans SC','PingFang SC','Microsoft YaHei','Hiragino Sans GB',sans-serif" font-size="280" fill="#8a949e" fill-opacity="1" text-anchor="middle" font-weight="400" transform="rotate(-90 9920 4150)">座椅+通行 1800</text><polyline points="300,20400 450,20400 450,1100 17200,1100 17200,2600 21500,2600 21500,4200" fill="none" stroke="#d2544a" stroke-width="90" stroke-dasharray="420,240" stroke-linejoin="round" opacity="0.75"/><circle cx="300" cy="20400" r="220" fill="#d2544a" stroke="none" stroke-width="20"/><text x="760" y="20300" font-family="'Noto Sans SC','Source Han Sans SC','PingFang SC','Microsoft YaHei','Hiragino Sans GB',sans-serif" font-size="300" fill="#d2544a" fill-opacity="1" text-anchor="start" font-weight="600">最不利点</text><text x="21500" y="5400" font-family="'Noto Sans SC','Source Han Sans SC','PingFang SC','Microsoft YaHei','Hiragino Sans GB',sans-serif" font-size="300" fill="#d2544a" fill-opacity="1" text-anchor="middle" font-weight="600">→ 安全出口 1</text><text x="-3200" y="-3900" font-family="'Noto Sans SC','Source Han Sans SC','PingFang SC','Microsoft YaHei','Hiragino Sans GB',sans-serif" font-size="700" fill="#1c2024" fill-opacity="1" text-anchor="start" font-weight="700">方案 A · 容量优先</text><text x="-3200" y="-3300" font-family="'Noto Sans SC','Source Han Sans SC','PingFang SC','Microsoft YaHei','Hiragino Sans GB',sans-serif" font-size="380" fill="#6b7680" fill-opacity="1" text-anchor="start" font-weight="400">工位 1400×700，背靠背带宽 1400，座椅+通行区 1800，采光通廊 1500，主通道 1800 ｜ 合计 102 工位，改造区 3.1 ㎡/位</text><g><text x="-3140" y="22900" font-family="'Noto Sans SC','Source Han Sans SC','PingFang SC','Microsoft YaHei','Hiragino Sans GB',sans-serif" font-size="360" font-weight="700" fill="#1c2024">设计说明</text><text x="-3140" y="23500" font-family="'Noto Sans SC','Source Han Sans SC','PingFang SC','Microsoft YaHei','Hiragino Sans GB',sans-serif" font-size="330" fill="#6b7680">1. 循环体系：北向采光通廊 1500（主横向）+ 入口纵向通道 1800 + 南区主通道 1800 + 纵向次通道 1200；南区主通道东端止于保留墙（IT/备餐间/茶水间），南区经纵向次通道向北接入通廊。</text><text x="-3140" y="24180" font-family="'Noto Sans SC','Source Han Sans SC','PingFang SC','Microsoft YaHei','Hiragino Sans GB',sans-serif" font-size="330" fill="#6b7680">2. ②轴柱（600×700）嵌入南区主通道北缘，柱侧净宽约 1100 —— 建议此处通道局部加宽至 2500，或将工位带南移 700。</text><text x="-3140" y="24860" font-family="'Noto Sans SC','Source Han Sans SC','PingFang SC','Microsoft YaHei','Hiragino Sans GB',sans-serif" font-size="330" fill="#6b7680">3. 最不利点（西南角）至办公区疏散门直线距离 ≈ 25.2 m；喷淋保护下限值 22×1.25 = 27.5 m，接近上限，须由消防设计单位复核并确认防烟分区与排烟方式。</text><text x="-3140" y="25540" font-family="'Noto Sans SC','Source Han Sans SC','PingFang SC','Microsoft YaHei','Hiragino Sans GB',sans-serif" font-size="330" fill="#6b7680">4. 原宿舍房间内无给排水点位，隔墙为轻质隔墙，拆除简单；但空调/新风/照明/强弱电须按办公密度重新设计。</text><text x="-3140" y="26220" font-family="'Noto Sans SC','Source Han Sans SC','PingFang SC','Microsoft YaHei','Hiragino Sans GB',sans-serif" font-size="330" fill="#6b7680">5. 南区（原宿舍）按图面无外窗，工位照度全部依赖人工照明；如原建筑图确有外窗，可将南区工位密度上调。</text><text x="-3140" y="26900" font-family="'Noto Sans SC','Source Han Sans SC','PingFang SC','Microsoft YaHei','Hiragino Sans GB',sans-serif" font-size="330" fill="#6b7680">6. 本方案不设独立会议室，会议 / 洽谈功能借用 3 楼（大会议室 48 ㎡、中会议室 21 ㎡、洽谈室 ×4）；打印、储物、电话亭结合入口门厅与主通道两侧墙面布置。</text></g><g><text x="-3140" y="28020" font-family="'Noto Sans SC','Source Han Sans SC','PingFang SC','Microsoft YaHei','Hiragino Sans GB',sans-serif" font-size="360" font-weight="700" fill="#1c2024">图例</text><rect x="-3140" y="28280" width="640" height="440" fill="#ffffff" stroke="#3d4650" stroke-width="30" rx="50"/><text x="-2320" y="28610" font-family="'Noto Sans SC','Source Han Sans SC','PingFang SC','Microsoft YaHei','Hiragino Sans GB',sans-serif" font-size="340" fill="#1c2024">工位 1400×700</text><rect x="4960" y="28280" width="640" height="440" fill="#f4f7fa" stroke="#3d4650" stroke-width="30" rx="50"/><text x="5780" y="28610" font-family="'Noto Sans SC','Source Han Sans SC','PingFang SC','Microsoft YaHei','Hiragino Sans GB',sans-serif" font-size="340" fill="#1c2024">主通道 / 采光通廊 / 门厅</text><rect x="13060" y="28280" width="640" height="440" fill="#4a5560" stroke="#3d4650" stroke-width="30" rx="50"/><text x="13880" y="28610" font-family="'Noto Sans SC','Source Han Sans SC','PingFang SC','Microsoft YaHei','Hiragino Sans GB',sans-serif" font-size="340" fill="#1c2024">结构柱</text><line x1="21160" y1="28400" x2="21800" y2="28400" stroke="#2f7fd4" stroke-width="60"/><line x1="21160" y1="28600" x2="21800" y2="28600" stroke="#2f7fd4" stroke-width="60"/><text x="21980" y="28610" font-family="'Noto Sans SC','Source Han Sans SC','PingFang SC','Microsoft YaHei','Hiragino Sans GB',sans-serif" font-size="340" fill="#1c2024">外窗</text><rect x="-3140" y="29180" width="640" height="440" fill="#eceff2" stroke="#3d4650" stroke-width="30" rx="50"/><text x="-2320" y="29510" font-family="'Noto Sans SC','Source Han Sans SC','PingFang SC','Microsoft YaHei','Hiragino Sans GB',sans-serif" font-size="340" fill="#1c2024">保留（茶水间/客房/卫生间/电井）</text><line x1="4960" y1="29400" x2="5600" y2="29400" stroke="#d2544a" stroke-width="70" stroke-dasharray="200,140"/><text x="5780" y="29510" font-family="'Noto Sans SC','Source Han Sans SC','PingFang SC','Microsoft YaHei','Hiragino Sans GB',sans-serif" font-size="340" fill="#1c2024">最不利点疏散路径</text></g></svg>